<?xml version="1.0" encoding="utf-8" ?><svg xmlns="http://www.w3.org/2000/svg" xmlns:xlink="http://www.w3.org/1999/xlink" width="383" height="122" viewBox="0 0 383 122"><path fill="#E30B79" d="M331.363 0.850823C340.304 0.398529 346.661 0.538257 354.863 4.83838C389.571 23.0338 380.768 74.8309 341.558 80.1967C341.469 80.2082 341.379 80.219 341.29 80.2292C330.994 81.4176 320.275 78.6243 312.13 72.152C303.505 65.4216 297.955 55.5007 296.733 44.6293C295.63 34.1075 298.751 23.5785 305.41 15.3574C311.782 7.25681 321.124 2.03489 331.363 0.850823Z"/><path fill="#F61C78" d="M323.702 20.2151C324.333 13.1696 327.427 9.03249 334.299 6.63277C337.043 5.67436 340.564 6.57255 343.07 7.98581C346.148 9.69225 348.4 12.5773 349.308 15.9778C349.645 17.2061 350.102 19.4422 349.474 20.5454C350.017 21.1789 349.857 20.9567 350.026 21.8506C352.547 21.2472 354.639 20.8281 357.206 21.4293C359.898 22.0595 364.767 23.2159 365.205 26.488C365.949 32.0466 364.619 38.5425 359.318 41.4548C358.818 41.7304 358.363 42.0489 357.803 42.1751L358.141 42.3825C357.904 42.9703 357.667 43.1377 357.205 43.5508C359.83 45.0583 360.956 46.4903 361.872 49.6798C364.229 57.889 360.335 66.7681 352.398 70.0633C349.77 71.1543 345.533 69.1934 343.286 67.8573C338.524 65.1898 337.753 61.1793 336.78 56.287L336.229 56.1307C336.131 55.971 336.014 55.8139 335.97 55.6314C334.127 54.6917 333.783 54.4541 331.687 54.4276L332.139 54.7683L331.723 54.9986C332.853 55.279 333.171 55.308 333.436 56.4569C331.455 64.4704 325.522 69.1053 317.016 68.3325C312.492 67.7279 309.592 62.075 308.565 58.1808C307.002 52.255 309.455 44.1226 314.485 40.6159L313.93 40.1489L313.195 40.4614L312.979 39.9873C309.103 39.7643 308.015 29.6051 308.493 26.7566C309.263 22.1761 317.407 20.7609 321.131 21.3235C324.801 21.8781 327.782 23.3281 329.949 26.2141C330.664 26.4488 330.542 26.5369 331.004 27.2858C331.038 27.0909 331.031 27.1684 330.956 26.9614L331.343 26.616L331.369 26.122C329.985 23.078 326.539 21.6061 323.702 20.2151Z"/><path fill="#FEFEFE" d="M314.485 40.6159C317.312 39.517 329.321 37.9632 331.157 39.5781C331.125 39.9938 330.963 40.4632 330.558 40.4608C329.314 40.4532 321.596 45.2796 321.627 45.2757L321.653 45.3374C323.141 45.1216 326.519 43.3757 327.837 42.5439L328.73 43.3001C326.394 45.1428 324.237 46.8497 322.626 49.3932C324.855 47.6774 327.328 45.8607 329.362 43.9444L330.169 44.784C328.426 47.036 319.261 55.7371 318.628 57.4657C321.221 55.8239 325.276 51.2325 327.421 48.7875C327.455 51.7193 327.261 52.0614 329.222 54.0684C328.312 55.6615 327.884 56.4488 327.24 58.1564L327.348 58.4047C329.457 56.9149 328.992 55.1671 330.078 54.6174C330.385 54.6949 331.474 54.9906 331.723 54.9986C332.853 55.279 333.171 55.308 333.436 56.4569C331.455 64.4704 325.522 69.1053 317.016 68.3325C312.492 67.7279 309.592 62.075 308.565 58.1808C307.002 52.255 309.455 44.1226 314.485 40.6159Z"/><path fill="#FEFEFE" d="M342.198 41.1801C342.081 40.2873 341.886 40.0821 342.295 39.453C345.756 39.142 353.937 42.1596 357.205 43.5508C359.83 45.0583 360.956 46.4903 361.872 49.6798C364.229 57.889 360.335 66.7681 352.398 70.0633C349.77 71.1543 345.533 69.1934 343.286 67.8573C338.524 65.1898 337.753 61.1793 336.78 56.287C338.136 55.6519 339.38 55.001 340.704 54.3033C341.315 55.285 341.913 56.2238 342.446 57.2533C342.439 56.3272 342.19 54.6218 343.116 54.2611C343.626 54.4304 346.003 58.5949 347.409 60.0868C346.33 57.569 345.397 55.6581 344.145 53.2326L345.383 51.0111L346.224 50.4241L345.284 47.7316C345.344 47.0887 345.404 46.9242 345.625 46.3138C345.374 45.916 343.893 44.3015 343.5 43.8566L342.845 44.4513C342.536 43.8572 342.313 41.941 342.198 41.1801Z"/><path fill="#F61C78" d="M343.5 43.8566L343.333 43.4358L343.794 43.2403L346.555 45.676C349.405 48.5388 351.171 50.4945 352.412 54.4145C349.6 51.3625 349.036 49.4184 345.625 46.3138C345.374 45.916 343.893 44.3015 343.5 43.8566Z"/><path fill="#EE78AB" d="M342.198 41.1801C343.594 41.0778 347.015 42.7899 347.708 43.9533L347.624 44.3819L346.555 45.676L343.794 43.2403L343.333 43.4358L343.5 43.8566L342.845 44.4513C342.536 43.8572 342.313 41.941 342.198 41.1801Z"/><path fill="#FEDBF3" d="M343.794 43.2403C345.852 43.0019 346.359 44.2511 347.624 44.3819L346.555 45.676L343.794 43.2403Z"/><path fill="#EE78AB" d="M346.224 50.4241C346.774 51.4312 350.053 57.4605 349.911 58.3084C347.271 55.8764 346.782 51.6329 345.383 51.0111L346.224 50.4241Z"/><path fill="#FEFEFE" d="M323.702 20.2151C324.333 13.1696 327.427 9.03249 334.299 6.63277C337.043 5.67436 340.564 6.57255 343.07 7.98581C346.148 9.69225 348.4 12.5773 349.308 15.9778C349.645 17.2061 350.102 19.4422 349.474 20.5454C346.293 21.9543 343.482 23.405 342.168 26.9074C341.49 28.7124 339.568 34.6615 337.863 35.4713C337.513 35.4417 337.291 35.4583 336.998 35.2675L335.993 35.5123L335.536 35.3515C333.659 33.5331 332.288 28.631 331.369 26.122C329.985 23.078 326.539 21.6061 323.702 20.2151Z"/><path fill="#EE78AB" d="M336.639 25.8378C337.073 28.4926 337.244 32.5902 336.998 35.2675L335.993 35.5123C336.293 31.8381 335.735 29.541 336.639 25.8378Z"/><path fill="#FEFEFE" d="M350.026 21.8506C352.547 21.2472 354.639 20.8281 357.206 21.4293C359.898 22.0595 364.767 23.2159 365.205 26.488C365.949 32.0466 364.619 38.5425 359.318 41.4548C358.818 41.7304 358.363 42.0489 357.803 42.1751C352.447 40.1065 348.657 38.5846 342.906 38.1501C343.991 37.6548 344.675 37.3114 345.696 36.6991L345.498 36.7748L346.232 36.1593L345.89 36.0107C344.452 36.1726 342.82 37.0621 341.482 37.6913C340.732 37.2453 340.069 36.9323 339.6 36.1934C339.632 35.4196 341.203 33.5685 341.566 32.5904C343.685 26.8861 343.575 24.0406 350.026 21.8506Z"/><path fill="#FEFEFE" d="M312.979 39.9873C309.103 39.7643 308.015 29.6051 308.493 26.7566C309.263 22.1761 317.407 20.7609 321.131 21.3235C324.801 21.8781 327.782 23.3281 329.949 26.2141C330.719 29.3049 333.818 35.0638 333.544 36.6737C332.347 37.9285 327.692 33.7888 325.729 33.0067C327.771 35.6439 329.005 36.2707 331.756 38.0848C325.778 37.506 318.401 36.982 312.979 39.9873Z"/><path fill="#F8E6EB" d="M342.845 44.4513L343.5 43.8566C343.893 44.3015 345.374 45.916 345.625 46.3138C345.404 46.9242 345.344 47.0887 345.284 47.7316C344.079 46.506 343.576 46.0136 342.845 44.4513Z"/><path fill="#FEDBF3" d="M327.837 42.5439C328.702 42.0162 329.849 41.1599 330.815 41.201L330.942 41.5437C330.495 42.2613 329.465 42.8265 328.73 43.3001L327.837 42.5439Z"/><path fill="#FEDBF3" d="M329.362 43.9444C330.22 42.8882 330.718 42.5736 331.805 41.8071C331.259 42.915 330.86 43.7421 330.169 44.784L329.362 43.9444Z"/><path fill="#FEFEFE" d="M333.195 46.748C335.18 47.1791 337.094 47.246 338.882 48.017L338.799 48.9383L338.743 48.9917L338.771 49.2711C340.553 49.1168 342.737 47.5655 344.212 48.8367C344.55 50.3271 343.034 53.9267 341.137 53.4397C339.732 53.0391 338.311 53.8297 337.088 54.4354C335.451 55.2464 329.544 53.6203 329.062 51.7839C327.447 45.6333 332.307 47.9892 333.102 47.6998L332.758 47.0127L333.195 46.748Z"/><path fill="#FEFEFE" d="M334.595 42.604C330.442 38.816 335.472 35.3295 339.492 37.7654C340.071 38.3983 340.879 39.3339 340.687 40.2286C340.06 43.145 336.959 45.0419 334.595 42.604Z"/><path fill="#F61C78" d="M334.595 42.604C334.606 41.5934 334.447 41.7786 335.024 41.1516C336.299 40.6909 337.45 40.8965 338.845 40.7543C338.474 41.8315 338.696 41.7017 337.873 42.279C336.185 42.4071 336.228 42.0395 334.595 42.604Z"/><path fill="#F8E6EB" d="M338.882 48.017C339.567 47.4468 339.734 47.3173 340.031 46.4691C339.927 45.2771 339.607 44.6132 339.992 43.6674L340.53 43.3231C340.975 43.4705 341.182 43.5105 341.337 44.0059C342.186 46.7301 340.66 47.8594 338.799 48.9383L338.882 48.017Z"/><path fill="#F8E6EB" d="M332.758 47.0127L332.135 46.3718C331.716 45.1163 331.724 43.7704 333.159 43.2118L333.589 43.4375C333.887 44.3558 333.293 45.3026 333.195 46.748L332.758 47.0127Z"/><path fill="#D42627" d="M1.12488 0.572034C3.45412 0.861302 7.70922 0.716949 10.1675 0.707163L25.6453 0.683709C29.5246 0.692425 32.9304 0.563025 36.7031 1.57054C40.0285 2.53932 42.1093 3.06933 45.1948 4.6757C47.9754 5.69874 52.2226 9.01044 54.3901 11.0221C70.922 26.366 71.8696 51.8751 56.1908 68.2134C49.5983 75.105 40.7394 79.3848 31.2431 80.2658C27.6753 80.6068 23.4928 80.4911 19.8549 80.4865C13.6034 80.4335 7.3515 80.4487 1.10032 80.532C1.0433 77.3779 1.18698 74.1536 1.15737 70.9871C0.938229 47.5529 1.50475 23.9949 1.12488 0.572034Z"/><path fill="#FEFEFE" d="M24.5651 9.49349L24.7196 9.39677C25.9956 10.5317 25.5419 11.3627 25.8427 11.578C27.8243 12.9966 30.0564 13.5 32.0142 15.0599C32.997 15.5248 33.6176 15.7502 34.1785 16.7369C34.5699 16.4667 35.0942 16.3763 35.5624 16.2629L36.4017 16.3084C38.2567 18.2541 39.7129 18.3301 40.9142 20.9652L40.9218 21.5034L40.2568 22.0089C40.457 22.7923 41.1471 23.4938 41.5151 24.1627C41.5615 24.2471 41.5974 26.2677 41.6408 26.5738C43.2758 29.1297 43.2285 28.7226 45.3672 30.0521C45.0447 31.0848 44.9116 30.99 45.1218 31.945C45.4545 32.2638 46.5527 33.2706 46.7436 33.5879C46.0419 34.4279 45.7922 34.7138 45.3196 35.6939C45.2198 36.5987 45.1061 36.4238 45.7199 37.2016C45.8277 37.336 45.9382 37.4682 46.0511 37.5982C44.7043 38.9518 44.0341 39.527 42.4981 40.6623L42.9175 41.2508L43.7805 41.296C45.4077 40.991 44.7219 42.2935 46.3674 42.5525C48.6338 40.9028 46.6896 34.8736 50.7705 34.6919L50.8128 34.2513C51.5744 34.0179 52.1897 33.8547 52.901 33.4871C53.9477 31.9003 52.5947 31.6659 54.0818 30.8789L55.2664 30.5736C55.9161 30.7642 56.332 30.8186 56.7212 31.3816C56.4526 32.0801 55.9424 32.1021 55.0687 32.5155C55.634 33.0679 55.8623 32.4751 56.7914 33.3769L56.7877 34.1245L56.4066 34.471L55.3015 34.2325L55.0927 34.4401C55.6806 35.2982 56.7738 36.7156 56.4946 37.7708C56.0026 37.9916 55.8713 38.0465 55.4621 38.3933C55.5005 38.5859 55.8283 39.7174 55.8544 39.6287C55.0635 42.3264 53.3532 46.682 52.0048 48.9905C51.2836 50.2252 47.6941 52.5657 47.2896 53.3629C46.2301 55.4503 45.9466 58.4912 45.3347 60.7459C44.9628 62.1164 44.3736 63.2285 43.7673 64.4106C41.6257 64.7774 37.5022 65.3097 35.6257 65.9462C35.2072 63.5783 34.8079 62.6728 33.6998 60.5103C34.2099 58.5499 34.5757 57.3088 35.2981 55.4224L34.1182 52.7184C32.3096 51.5257 32.0085 50.9608 31.4012 48.8463C30.0489 47.984 29.2094 47.4832 28.0318 46.3838C26.442 47.1274 25.4766 47.3996 23.76 47.8141C24.7886 47.027 26.0419 46.368 26.422 45.3334C26.1425 44.2189 25.6968 44.1256 25.5209 43.2618C24.1423 42.6306 24.9336 42.0611 22.508 41.4417L21.8173 41.3537C21.2909 41.2574 20.7345 41.0368 20.2259 40.8553C20.4639 40.669 20.6992 40.4794 20.9318 40.2865C21.8008 39.5596 21.8695 39.4169 21.9548 38.4232C21.039 38.17 20.8687 37.8171 20.5282 37.0336L20.7495 36.3488L20.5135 35.9556L19.8169 36.1157C19.4196 36.1096 19.1392 35.9057 18.7922 35.708C17.5582 37.0599 16.8573 37.044 16.1672 38.6293L15.2249 38.4235C16.0585 36.492 16.0961 36.4958 17.5347 34.9602C17.0135 34.3914 17.1364 34.3475 16.9859 33.5174C16.6661 34.1788 16.3959 34.916 15.8168 35.3428C15.1183 34.476 15.411 33.4586 14.1371 34.0335L13.0721 33.5179C14.0496 31.521 13.4656 30.8701 13.8653 30.0936C14.3349 29.1814 16.4039 27.8868 16.6648 26.4146C15.6907 25.6348 15.7166 25.7542 15.7715 24.6112C16.7468 24.6574 16.9151 24.6021 17.6087 24.097C17.9801 23.2297 17.951 23.5812 17.7522 22.6809C16.9678 21.9231 17.1999 22.1304 16.1033 21.834L15.719 20.8285C15.019 20.5667 15.1724 20.5691 14.7108 19.8827C16.1166 19.1275 16.6119 19.0263 18.1459 18.7447C15.6076 14.6631 18.8721 14.7469 22.0555 14.3927C21.7919 14.3528 21.5287 14.3106 21.2658 14.2662C20.5643 14.1483 19.6644 14.0323 19.2603 13.4652C20.1468 12.5807 23.2483 12.9733 24.4358 13.0704C23.5794 12.4917 21.4367 11.3067 21.6114 10.1794C22.2165 9.90821 22.8431 10.1536 23.4983 10.3171C23.8137 10.207 24.2896 9.73728 24.5651 9.49349Z"/><path fill="#D42627" d="M32.0142 15.0599C32.997 15.5248 33.6176 15.7502 34.1785 16.7369C34.5699 16.4667 35.0942 16.3763 35.5624 16.2629L36.4017 16.3084C38.2567 18.2541 39.7129 18.3301 40.9142 20.9652L40.9218 21.5034L40.2568 22.0089C40.457 22.7923 41.1471 23.4938 41.5151 24.1627C41.5615 24.2471 41.5974 26.2677 41.6408 26.5738C43.2758 29.1297 43.2285 28.7226 45.3672 30.0521C45.0447 31.0848 44.9116 30.99 45.1218 31.945C45.4545 32.2638 46.5527 33.2706 46.7436 33.5879C46.0419 34.4279 45.7922 34.7138 45.3196 35.6939C45.2198 36.5987 45.1061 36.4238 45.7199 37.2016C45.8277 37.336 45.9382 37.4682 46.0511 37.5982C44.7043 38.9518 44.0341 39.527 42.4981 40.6623L42.9175 41.2508L43.7805 41.296C45.4077 40.991 44.7219 42.2935 46.3674 42.5525C48.6338 40.9028 46.6896 34.8736 50.7705 34.6919C52.6138 37.8282 52.2711 48.3058 48.6681 49.3983C48.0509 48.5543 49.0496 46.8923 48.6168 46.1442C47.1972 47.1712 45.9204 49.3781 43.8405 49.0036C43.6755 48.9747 43.5123 48.9356 43.3521 48.8866L43.0891 48.4758C42.6185 48.4289 41.8735 48.3268 41.4263 48.3774L41.1822 48.3681C40.8946 47.8771 41.0292 47.3108 41.0925 46.7358C39.9051 45.6407 39.3433 46.8435 38.2269 46.5079L37.9118 45.675C36.9175 45.2608 36.0206 45.5617 34.8234 45.6866C34.2228 45.2276 34.4718 45.3325 34.3145 44.4828C34.1893 43.8064 32.6458 43.2561 31.8635 42.8377C30.2994 40.3917 35.2969 35.3979 31.807 31.8147C30.7252 31.1941 29.3331 32.1021 28.7681 31.7841C28.236 31.4846 27.0908 30.6228 26.4231 30.2249C25.8687 29.8946 24.6467 29.3948 24.2897 29.1118L24.2019 29.0408C24.3836 27.2718 27.9505 29.374 29.661 29.0339L30.4601 27.2774C31.4242 27.0834 30.4678 25.6015 31.0683 24.3446L30.6948 24.1565C31.1254 24.0312 31.2672 23.885 31.612 23.6051L31.5387 23.2421L30.6891 23.0035C31.4906 22.5538 32.0218 22.1792 32.7686 21.6428L32.8673 21.5279C32.8803 20.6461 32.2485 21.041 31.7544 19.9362L32.0093 19.5277C31.9709 18.9645 30.9749 17.9049 30.506 17.0268L30.7162 16.7004C31.965 16.4216 31.8084 16.1439 32.0142 15.0599Z"/><path fill="#F0534E" d="M32.0142 15.0599C32.997 15.5248 33.6176 15.7502 34.1785 16.7369C34.5699 16.4667 35.0942 16.3763 35.5624 16.2629L36.4017 16.3084C38.2567 18.2541 39.7129 18.3301 40.9142 20.9652L40.9218 21.5034L40.2568 22.0089C40.457 22.7923 41.1471 23.4938 41.5151 24.1627C41.5615 24.2471 41.5974 26.2677 41.6408 26.5738L40.7123 26.7908C40.1824 26.7461 39.9957 26.358 39.5519 25.8868L38.7213 26.6149L39.1661 27.5341L39.0315 27.9182C38.6742 27.8496 38.3852 27.8238 38.0946 27.5986C35.6285 26.6116 33.6435 25.3502 31.0683 24.3446L30.6948 24.1565C31.1254 24.0312 31.2672 23.885 31.612 23.6051L31.5387 23.2421L30.6891 23.0035C31.4906 22.5538 32.0218 22.1792 32.7686 21.6428L32.8673 21.5279C32.8803 20.6461 32.2485 21.041 31.7544 19.9362L32.0093 19.5277C31.9709 18.9645 30.9749 17.9049 30.506 17.0268L30.7162 16.7004C31.965 16.4216 31.8084 16.1439 32.0142 15.0599Z"/><path fill="#EE9194" d="M34.1785 16.7369C34.5699 16.4667 35.0942 16.3763 35.5624 16.2629L36.4017 16.3084C38.2567 18.2541 39.7129 18.3301 40.9142 20.9652L40.9218 21.5034L40.2568 22.0089C40.457 22.7923 41.1471 23.4938 41.5151 24.1627C41.5615 24.2471 41.5974 26.2677 41.6408 26.5738L40.7123 26.7908C40.6011 25.8713 40.2109 26.3771 40.0068 25.4974C40.315 25.2292 40.5449 25.0096 40.8314 24.7182C40.0099 23.1094 38.8536 22.0436 37.0418 22.1503C36.8399 20.8412 34.0869 18.4128 34.1785 16.7369Z"/><path fill="#F0534E" d="M35.5624 16.2629L36.4017 16.3084C38.2567 18.2541 39.7129 18.3301 40.9142 20.9652L40.6027 21.068C39.9674 20.9499 39.7575 20.6255 39.2382 20.327C37.5487 19.3561 35.6463 18.5624 35.5624 16.2629Z"/><path fill="#F8E6EB" d="M32.7686 21.6428C33.4519 22.7414 34.1968 23.5419 34.7724 24.4614C36.9893 25.3537 37.2234 25.875 38.7213 26.6149L39.1661 27.5341L39.0315 27.9182C38.6742 27.8496 38.3852 27.8238 38.0946 27.5986C35.6285 26.6116 33.6435 25.3502 31.0683 24.3446L30.6948 24.1565C31.1254 24.0312 31.2672 23.885 31.612 23.6051L31.5387 23.2421L30.6891 23.0035C31.4906 22.5538 32.0218 22.1792 32.7686 21.6428Z"/><path fill="#F8E6EB" d="M39.5519 25.8868C38.4499 24.546 34.3133 22.783 34.0821 21.117C34.8509 20.9266 35.8301 21.7349 37.0418 22.1503C38.8536 22.0436 40.0099 23.1094 40.8314 24.7182C40.5449 25.0096 40.315 25.2292 40.0068 25.4974C40.2109 26.3771 40.6011 25.8713 40.7123 26.7908C40.1824 26.7461 39.9957 26.358 39.5519 25.8868Z"/><path fill="#E12927" d="M31.0683 24.3446C33.6435 25.3502 35.6285 26.6116 38.0946 27.5986C37.1938 28.2705 30.7683 30.1434 29.661 29.0339L30.4601 27.2774C31.4242 27.0834 30.4678 25.6015 31.0683 24.3446Z"/><path fill="#EE9194" d="M43.7805 41.296C43.7407 41.6143 43.5951 41.7621 43.4079 42.0244C41.8645 42.1367 38.4108 42.1927 38.0208 40.2307C39.2354 39.271 39.5344 41.3291 42.4981 40.6623L42.9175 41.2508L43.7805 41.296Z"/><path fill="#FEDBF3" d="M41.4263 48.3774C41.8566 47.5418 41.3553 46.9338 42.6365 46.5116C43.215 47.3662 43.0335 47.2902 43.0891 48.4758C42.6185 48.4289 41.8735 48.3268 41.4263 48.3774Z"/><path fill="#F4CACC" d="M34.0256 32.1792C33.5168 32.0801 38.5784 34.0353 38.0234 33.663L37.9371 34.3964C35.9225 35.0762 34.4073 34.33 34.0256 32.1792Z"/><path fill="#F0534E" d="M29.9722 26.2473C29.3125 25.6225 27.843 24.8564 27.9364 23.9054C28.7773 23.6125 29.8092 23.9514 30.6948 24.1565L31.0683 24.3446C30.4678 25.6015 31.4242 27.0834 30.4601 27.2774L29.661 29.0339C27.9505 29.374 24.3836 27.2718 24.2019 29.0408L23.5024 27.787L23.3308 27.7496C22.3067 27.5243 21.5744 27.4728 21.0396 26.6355C21.3698 25.9122 22.6038 25.4421 23.3696 25.059C25.1305 25.2195 28.1473 25.8939 29.9722 26.2473Z"/><path fill="#F8E6EB" d="M23.5024 27.787C23.378 27.3187 23.3296 26.9729 23.2619 26.4929L23.6072 26.329C27.2526 27.8537 28.8456 26.5531 30.4601 27.2774L29.661 29.0339C27.9505 29.374 24.3836 27.2718 24.2019 29.0408L23.5024 27.787Z"/><path fill="#F37D7A" d="M24.5651 9.49349L24.7196 9.39677C25.9956 10.5317 25.5419 11.3627 25.8427 11.578C27.8243 12.9966 30.0564 13.5 32.0142 15.0599C31.8084 16.1439 31.965 16.4216 30.7162 16.7004L30.506 17.0268C30.3584 16.7234 30.1938 15.9105 29.9698 15.6377C27.599 12.7507 25.6376 13.8358 23.4983 10.3171C23.8137 10.207 24.2896 9.73728 24.5651 9.49349Z"/><path fill="#F0534E" d="M29.8006 20.6668C28.507 19.72 26.9772 18.8772 26.4686 17.4188L26.7022 17.2428C28.4612 17.859 28.4975 18.6325 30.2256 19.2561L30.3033 19.2835C29.9534 20.105 29.6493 20.9577 29.0488 21.6152C27.5781 21.7973 24.3016 21.2378 23.707 19.714C24.563 19.2568 28.1537 20.4702 29.8006 20.6668Z"/><path fill="#F0534E" d="M17.5347 34.9602C19.2665 33.8166 19.8297 33.3244 21.9402 33.1899L22.3213 33.3684C21.6955 34.259 19.9073 34.6244 18.7922 35.708C17.5582 37.0599 16.8573 37.044 16.1672 38.6293L15.2249 38.4235C16.0585 36.492 16.0961 36.4958 17.5347 34.9602Z"/><path fill="#F37D7A" d="M13.0721 33.5179C13.8597 33.4752 16.613 31.4357 18.5488 30.7479C18.2288 31.3079 17.195 33.0204 16.9859 33.5174C16.6661 34.1788 16.3959 34.916 15.8168 35.3428C15.1183 34.476 15.411 33.4586 14.1371 34.0335L13.0721 33.5179Z"/><path fill="#E12927" d="M30.3033 19.2835L31.7544 19.9362C32.2485 21.041 32.8803 20.6461 32.8673 21.5279L32.7686 21.6428C32.0218 22.1792 31.4906 22.5538 30.6891 23.0035L29.0488 21.6152C29.6493 20.9577 29.9534 20.105 30.3033 19.2835Z"/><path fill="#F37D7A" d="M18.3759 27.6844C18.7063 27.9993 18.6171 27.8607 18.6353 28.4138C17.9254 29.345 15.9294 30.3932 14.8334 30.9911L14.66 30.8662C15.0487 29.5575 17.1521 28.4797 18.3759 27.6844Z"/><path fill="#FEFEFE" d="M41.7376 12.33C42.4519 11.6678 42.998 11.6107 43.9473 11.3933L43.949 13.0571C44.5855 13.1563 44.9678 13.1674 45.5996 13.1809L46.1081 14.3563C48.2672 15.0296 50.1489 12.8361 51.62 12.9548C51.6555 13.7526 51.5061 13.7314 51.0559 14.4925C50.3233 15.0388 49.6712 15.4479 49.1966 16.2304L49.2213 16.7769L49.8352 16.9582L50.1309 17.6364L49.8887 18.4844L50.7802 18.9055C52.4964 18.1118 53.489 17.4745 55.385 17.6392L55.5315 17.9319C54.9115 18.5744 53.4059 18.981 52.5137 19.234L53.0035 22.0472C54.0972 23.151 55.8128 25.4483 55.5253 27.088C56.2283 27.5255 56.3841 27.4583 56.6547 28.1307C55.8957 29.6904 55.6429 28.6638 55.2664 30.5736L54.0818 30.8789C52.5947 31.6659 53.9477 31.9003 52.901 33.4871C52.1897 33.8547 51.5744 34.0179 50.8128 34.2513L50.7705 34.6919C46.6896 34.8736 48.6338 40.9028 46.3674 42.5525C44.7219 42.2935 45.4077 40.991 43.7805 41.296L42.9175 41.2508L42.4981 40.6623C44.0341 39.527 44.7043 38.9518 46.0511 37.5982C45.9382 37.4682 45.8277 37.336 45.7199 37.2016C45.1061 36.4238 45.2198 36.5987 45.3196 35.6939C45.7922 34.7138 46.0419 34.4279 46.7436 33.5879C46.5527 33.2706 45.4545 32.2638 45.1218 31.945C44.9116 30.99 45.0447 31.0848 45.3672 30.0521C43.2285 28.7226 43.2758 29.1297 41.6408 26.5738C41.5974 26.2677 41.5615 24.2471 41.5151 24.1627C41.1471 23.4938 40.457 22.7923 40.2568 22.0089L40.9218 21.5034L40.9142 20.9652C39.7129 18.3301 38.2567 18.2541 36.4017 16.3084L37.2122 15.6817C37.5802 16.0007 38.0231 16.4884 38.4805 16.4903C38.4761 16.1539 38.5021 16.0575 38.3203 15.7795C39.026 15.6617 39.4559 15.0777 39.8048 14.5183C40.3255 15.036 41.1289 15.9489 41.7768 16.1615L42.1847 15.9416C41.4667 14.4291 41.4905 13.9963 41.7376 12.33Z"/><path fill="#F8E6EB" d="M38.3203 15.7795C39.026 15.6617 39.4559 15.0777 39.8048 14.5183C40.3255 15.036 41.1289 15.9489 41.7768 16.1615L42.1847 15.9416C43.336 17.3038 44.4847 20.4086 43.6113 22.0283C43.4596 22.3096 43.2186 22.7259 43.1175 23.0039C45.2044 27.6602 46.8625 24.7826 45.4548 29.6333L45.3672 30.0521C43.2285 28.7226 43.2758 29.1297 41.6408 26.5738C41.5974 26.2677 41.5615 24.2471 41.5151 24.1627C41.1471 23.4938 40.457 22.7923 40.2568 22.0089L40.9218 21.5034L40.9142 20.9652C39.7129 18.3301 38.2567 18.2541 36.4017 16.3084L37.2122 15.6817C37.5802 16.0007 38.0231 16.4884 38.4805 16.4903C38.4761 16.1539 38.5021 16.0575 38.3203 15.7795Z"/><path fill="#F0534E" d="M45.4548 29.6333C44.3233 28.8308 41.8282 24.0712 42.5094 22.8265L43.1175 23.0039C45.2044 27.6602 46.8625 24.7826 45.4548 29.6333Z"/><path fill="#E12927" d="M50.8128 34.2513C50.5344 33.9634 50.2273 33.2524 50.0025 32.8677C48.8256 30.853 46.6136 29.5216 47.488 26.9317L47.5108 26.8655L47.4123 26.9086C48.432 27.2319 47.2155 28.9074 48.9533 29.2838C50.3467 28.4974 49.5435 27.0293 51.2483 26.5655L51.7228 26.9473C51.5742 28.2241 50.5255 28.3455 50.3383 29.5949C52.436 29.38 51.5088 29.7794 53.1835 30.3257C53.8699 29.2597 54.6319 27.9622 55.5253 27.088C56.2283 27.5255 56.3841 27.4583 56.6547 28.1307C55.8957 29.6904 55.6429 28.6638 55.2664 30.5736L54.0818 30.8789C52.5947 31.6659 53.9477 31.9003 52.901 33.4871C52.1897 33.8547 51.5744 34.0179 50.8128 34.2513Z"/><path fill="#F37D7A" d="M49.8887 18.4844L50.7802 18.9055L50.2287 19.2359C49.828 20.4666 51.1937 21.608 50.9462 23.0653C50.3727 23.6448 50.6474 23.5062 49.8389 23.6223C49.3208 22.6813 50.0888 21.8918 49.5872 20.9971L49.1272 20.9883C48.9843 21.4995 48.8647 21.6975 48.6086 22.1644L48.3248 22.0899C47.7365 20.6447 48.7106 19.269 49.8887 18.4844Z"/><path fill="#E12927" d="M46.7436 33.5879C47.3357 34.29 47.1481 34.0964 48.231 34.2299C47.8786 35.4484 46.9613 36.7306 46.0511 37.5982C45.9382 37.4682 45.8277 37.336 45.7199 37.2016C45.1061 36.4238 45.2198 36.5987 45.3196 35.6939C45.7922 34.7138 46.0419 34.4279 46.7436 33.5879Z"/><path fill="#F4CACC" d="M46.7436 33.5879C47.3357 34.29 47.1481 34.0964 48.231 34.2299C47.0414 34.6568 45.8504 35.6899 45.3196 35.6939C45.7922 34.7138 46.0419 34.4279 46.7436 33.5879Z"/><path fill="#F0534E" d="M43.949 13.0571C44.5855 13.1563 44.9678 13.1674 45.5996 13.1809C44.1589 14.3479 45.0611 15.2728 44.6223 17.0036L44.5308 16.9828C43.911 16.1087 43.2666 14.0154 43.949 13.0571Z"/><path fill="#F37D7A" d="M46.6125 15.8483C47.4742 16.3274 47.2818 16.0625 47.5448 16.8579C47.4548 17.7964 46.7949 18.6375 46.269 19.4318C46.3685 21.1462 46.5844 23.5548 46.369 25.1942C45.8272 25.0016 45.3643 24.6109 45.2517 24.037C44.5974 20.7034 44.991 18.7098 46.6125 15.8483Z"/><path fill="#FEFEFE" d="M29.025 7.73449C29.9615 8.62331 30.9182 9.49067 31.8942 10.3359C32.6495 10.0343 32.8017 9.99013 33.6356 10.0094L33.7037 9.09733C33.9268 9.14023 34.8989 9.31151 35.0509 9.37033C35.664 10.0878 37.0272 11.934 37.7616 12.1894L38.1074 12.152C38.5227 12.6477 38.7553 12.8577 38.8286 13.5111C38.6944 13.9649 38.2115 15.1942 38.1922 15.4293L38.3203 15.7795C38.5021 16.0575 38.4761 16.1539 38.4805 16.4903C38.0231 16.4884 37.5802 16.0007 37.2122 15.6817L36.4017 16.3084L35.5624 16.2629C35.0942 16.3763 34.5699 16.4667 34.1785 16.7369C33.6176 15.7502 32.997 15.5248 32.0142 15.0599C30.0564 13.5 27.8243 12.9966 25.8427 11.578C25.5419 11.3627 25.9956 10.5317 24.7196 9.39677L24.6651 8.89831L25.0127 8.48723L26.7997 8.60896C27.2373 8.80834 27.8104 9.04656 28.2017 9.3055C28.6525 8.66777 28.7798 8.49854 29.025 7.73449Z"/><path fill="#F37D7A" d="M33.7037 9.09733C33.9268 9.14023 34.8989 9.31151 35.0509 9.37033C35.664 10.0878 37.0272 11.934 37.7616 12.1894L38.1074 12.152C38.5227 12.6477 38.7553 12.8577 38.8286 13.5111C38.6944 13.9649 38.2115 15.1942 38.1922 15.4293L38.3203 15.7795C38.5021 16.0575 38.4761 16.1539 38.4805 16.4903C38.0231 16.4884 37.5802 16.0007 37.2122 15.6817C36.2201 13.8176 34.6601 12.0378 33.6356 10.0094L33.7037 9.09733Z"/><path fill="#F4CACC" d="M35.0509 9.37033C35.664 10.0878 37.0272 11.934 37.7616 12.1894L38.1074 12.152C38.5227 12.6477 38.7553 12.8577 38.8286 13.5111C38.6944 13.9649 38.2115 15.1942 38.1922 15.4293C37.842 13.4974 34.556 12.0424 35.0509 9.37033Z"/><path fill="#F0534E" d="M29.025 7.73449C29.9615 8.62331 30.9182 9.49067 31.8942 10.3359C32.734 11.1373 33.9157 12.0646 33.5133 13.2526C32.6865 13.7017 32.9796 13.694 32.238 13.5219C31.9106 12.9525 31.5749 12.388 31.231 11.8284C30.2773 10.2875 30.2113 10.4107 28.371 9.97703L28.2017 9.3055C28.6525 8.66777 28.7798 8.49854 29.025 7.73449Z"/><path fill="#E12927" d="M18.7922 35.708C19.1392 35.9057 19.4196 36.1096 19.8169 36.1157L20.5135 35.9556L20.7495 36.3488L20.5282 37.0336C20.8687 37.8171 21.039 38.17 21.9548 38.4232C21.8695 39.4169 21.8008 39.5596 20.9318 40.2865C20.6992 40.4794 20.4639 40.669 20.2259 40.8553C19.2688 41.5456 18.3127 42.1181 17.8212 43.2133C17.9701 44.4885 18.7028 43.5317 18.2642 44.8516C15.9491 44.7891 15.1753 44.8525 12.858 45.4359L12.9224 43.5391C13.8482 43.016 14.3592 42.8806 14.5256 41.7914C14.1568 41.3396 13.9246 41.1184 13.4941 40.7229C13.6171 40.1322 14.5854 39.4611 15.2249 38.4235L16.1672 38.6293C16.8573 37.044 17.5582 37.0599 18.7922 35.708Z"/><path fill="#F37D7A" d="M18.7922 35.708C19.1392 35.9057 19.4196 36.1096 19.8169 36.1157L20.5135 35.9556L20.7495 36.3488L20.5282 37.0336C20.0593 37.5113 19.3049 38.4025 18.703 38.543L18.0227 38.2852C17.321 38.8981 17.1442 38.8886 16.1672 38.6293C16.8573 37.044 17.5582 37.0599 18.7922 35.708Z"/><path fill="#F0534E" d="M19.8169 36.1157L20.5135 35.9556L20.7495 36.3488L20.5282 37.0336C20.0593 37.5113 19.3049 38.4025 18.703 38.543L18.0227 38.2852C18.5981 37.4181 19.1117 36.8821 19.8169 36.1157Z"/><path fill="#F8E6EB" d="M20.5282 37.0336C20.8687 37.8171 21.039 38.17 21.9548 38.4232C20.5573 38.747 19.1795 39.6734 18.4744 39.591C18.363 38.9952 18.3907 39.1774 18.703 38.543C19.3049 38.4025 20.0593 37.5113 20.5282 37.0336Z"/><path fill="#F4CACC" d="M25.0716 2.20836C28.5526 3.26511 31.4328 4.70867 33.2455 8.09186C33.418 8.41766 33.571 8.75341 33.7037 9.09733L33.6356 10.0094C32.8017 9.99013 32.6495 10.0343 31.8942 10.3359C30.9182 9.49067 29.9615 8.62331 29.025 7.73449C28.5662 7.1245 28.4824 7.20398 28.427 6.50869L28.9698 6.28728C29.4212 5.87253 29.2863 6.01709 29.489 5.36185C28.1897 4.48664 26.181 3.21044 25.0716 2.20836Z"/><path fill="#F0534E" d="M29.489 5.36185C30.7212 6.26728 31.47 6.78344 32.0691 8.19465L31.9249 8.51798C30.9054 8.37376 29.758 7.05122 28.9698 6.28728C29.4212 5.87253 29.2863 6.01709 29.489 5.36185Z"/><path fill="#E12927" d="M36.7031 1.57054C40.0285 2.53932 42.1093 3.06933 45.1948 4.6757C44.1446 5.19545 43.3485 4.2916 41.8544 4.29931L42.8669 4.84349L42.8829 5.27182C42.2771 5.09671 41.7346 4.94436 41.1166 4.80395L40.8032 5.04103C40.7563 5.7366 40.7399 6.09337 40.7905 6.80198L39.6832 7.23467C38.7139 6.47005 37.0596 3.7606 36.3135 2.62003C36.3182 1.89275 36.2285 2.15491 36.7031 1.57054Z"/><path fill="#F0534E" d="M40.7905 6.80198C40.9923 7.97861 41.299 11.5729 41.7376 12.33C41.4905 13.9963 41.4667 14.4291 42.1847 15.9416L41.7768 16.1615C41.1289 15.9489 40.3255 15.036 39.8048 14.5183C39.4559 15.0777 39.026 15.6617 38.3203 15.7795L38.1922 15.4293C38.2115 15.1942 38.6944 13.9649 38.8286 13.5111C38.7553 12.8577 38.5227 12.6477 38.1074 12.152L38.5888 10.8212C39.0311 10.7674 39.4721 10.7028 39.9112 10.6276C40.4358 9.96623 40.189 7.8394 39.6832 7.23467L40.7905 6.80198Z"/><path fill="#F8E6EB" d="M38.5888 10.8212C39.0311 10.7674 39.4721 10.7028 39.9112 10.6276C40.4481 12.1538 40.7696 12.5389 40.0869 13.9618C39.9961 14.1489 39.902 14.3344 39.8048 14.5183C39.4559 15.0777 39.026 15.6617 38.3203 15.7795L38.1922 15.4293C38.2115 15.1942 38.6944 13.9649 38.8286 13.5111C38.7553 12.8577 38.5227 12.6477 38.1074 12.152L38.5888 10.8212Z"/><path fill="#F4CACC" d="M40.7905 6.80198C40.7399 6.09337 40.7563 5.7366 40.8032 5.04103L41.1166 4.80395C41.7346 4.94436 42.2771 5.09671 42.8829 5.27182C43.1254 6.13197 43.9212 11.3424 43.9473 11.3933C42.998 11.6107 42.4519 11.6678 41.7376 12.33C41.299 11.5729 40.9923 7.97861 40.7905 6.80198Z"/><path fill="#F8E6EB" d="M14.1371 34.0335C15.411 33.4586 15.1183 34.476 15.8168 35.3428C16.3959 34.916 16.6661 34.1788 16.9859 33.5174C17.1364 34.3475 17.0135 34.3914 17.5347 34.9602C16.0961 36.4958 16.0585 36.492 15.2249 38.4235C14.5854 39.4611 13.6171 40.1322 13.4941 40.7229C13.9246 41.1184 14.1568 41.3396 14.5256 41.7914C14.3592 42.8806 13.8482 43.016 12.9224 43.5391C12.2327 40.036 15.1504 37.7898 14.6002 36.8161C13.9869 37.2004 13.556 37.5029 12.8649 37.742L12.7805 37.3884C13.1504 35.9311 13.2612 35.2974 14.1371 34.0335Z"/><path fill="#F4CACC" d="M36.3135 2.62003C37.0596 3.7606 38.7139 6.47005 39.6832 7.23467C40.189 7.8394 40.4358 9.96623 39.9112 10.6276C39.4721 10.7028 39.0311 10.7674 38.5888 10.8212C38.137 8.83342 35.3705 5.15955 36.3135 2.62003Z"/><path fill="#F8E6EB" d="M12.858 45.4359C15.1753 44.8525 15.9491 44.7891 18.2642 44.8516C18.1247 45.9972 18.3025 46.1083 17.675 46.8515C16.7013 46.9369 15.3341 46.4782 14.5933 47.2569C14.3263 47.5376 14.2791 48.7805 13.7136 49.1673C13.0573 48.9835 13.2757 49.1062 12.8254 48.4871C12.7216 47.2094 12.7349 46.7138 12.858 45.4359Z"/><path fill="#F4CACC" d="M16.1033 21.834C17.1999 22.1304 16.9678 21.9231 17.7522 22.6809C17.951 23.5812 17.9801 23.2297 17.6087 24.097C16.9151 24.6021 16.7468 24.6574 15.7715 24.6112C15.8327 24.4452 15.7731 24.3079 15.7294 24.1303C14.7797 24.2057 13.5341 26.2627 12.1512 26.2635L12.0596 25.9244C12.627 24.7765 15.0268 22.6608 16.1033 21.834Z"/><path fill="#FEDBF3" d="M22.508 41.4417C24.9336 42.0611 24.1423 42.6306 25.5209 43.2618C24.4252 44.3491 21.8802 45.4167 20.965 43.6322C21.2222 42.5206 21.6593 42.3417 22.508 41.4417Z"/><path fill="#EE9194" d="M51.7215 14.7963C52.3567 14.3235 52.3182 14.1792 52.9852 14.225C52.9491 15.1824 50.8241 16.862 50.1309 17.6364L49.8352 16.9582L49.2213 16.7769L49.1966 16.2304C49.6712 15.4479 50.3233 15.0388 51.0559 14.4925L51.7215 14.7963Z"/><path fill="#F0534E" d="M49.2213 16.7769L49.1966 16.2304C49.6712 15.4479 50.3233 15.0388 51.0559 14.4925L51.7215 14.7963C51.1777 15.2837 49.8215 16.6216 49.2213 16.7769Z"/><path fill="#F8E6EB" d="M24.5651 9.49349C23.773 9.0762 22.429 8.61792 22.7724 7.60999C24.3885 7.35016 25.325 7.93581 26.7997 8.60896L25.0127 8.48723L24.6651 8.89831L24.7196 9.39677L24.5651 9.49349Z"/><path fill="#EE9194" d="M17.8212 43.2133C18.3127 42.1181 19.2688 41.5456 20.2259 40.8553C20.7345 41.0368 21.2909 41.2574 21.8173 41.3537C19.5096 41.7475 19.21 43.5094 17.8212 43.2133Z"/><path fill="#F8E6EB" d="M14.7108 19.8827C15.1724 20.5691 15.019 20.5667 15.719 20.8285C14.8201 21.2505 13.9833 21.8975 13.1537 21.2192C13.3866 20.5447 14.074 20.2592 14.7108 19.8827Z"/><path fill="#FEFEFE" d="M12.7633 52.1727C13.4773 52.1992 14.1906 52.2413 14.9027 52.299C18.0243 52.5577 24.75 53.5342 26.8856 56.0584C26.8519 56.7781 26.321 56.3712 25.4859 57.2503C25.6191 58.2867 28.1541 59.5371 26.249 60.2429C24.9302 60.7314 23.603 63.238 22.9183 64.3861C22.6178 65.2744 22.2382 66.2256 21.9056 67.1102C21.832 67.0401 21.7577 66.9709 21.6827 66.9024C20.8509 66.1414 19.3473 65.2784 18.2232 65.2648C17.2312 65.2528 16.4095 66.883 15.5752 67.8016C14.3696 67.7243 13.4625 67.986 12.7813 67.4851C12.6834 67.231 12.7677 53.5376 12.7633 52.1727Z"/><path fill="#3FBAEB" d="M66.525 80.5143L96.7201 28.3234C102.005 19.1042 107.798 9.5546 112.822 0.255094L145.398 56.7087L153.309 70.5213C154.706 72.9767 157.89 78.7751 159.573 80.6464L150.807 80.4107C146.135 80.6835 140.537 80.4991 135.741 80.5819L134.409 80.5155C133.763 80.4059 125.968 80.5157 124.866 80.5174L102.622 80.5361C99.1593 80.537 93.1928 80.6979 89.9085 80.2995C89.2881 80.405 88.7868 80.5127 88.1509 80.4861C83.3985 80.5107 77.8713 80.6581 73.1843 80.4184C70.9907 80.4583 68.7117 80.5319 66.525 80.5143Z"/><path fill="#FEFEFE" d="M81.8574 75.9627C83.0636 75.5804 84.794 75.3613 86.134 75.0517C89.6519 74.2388 93.1465 72.4796 96.1691 70.5119C102.388 66.4636 105.572 58.0231 112.299 55.0918C113.041 54.7686 115.06 54.3877 115.92 54.2201C116.635 55.0898 117.407 55.943 118.155 56.7874L118.589 55.7153C119.135 55.6679 121.775 55.5011 122.038 55.8178C124.432 58.6939 125.97 60.6261 128.801 63.1261L129.251 62.5603L131.571 61.0822C133.935 63.7167 136.179 66.4575 138.294 69.2959C139.268 70.6089 141.433 73.8306 142.401 74.8064C146.558 74.9896 146.133 74.9222 149.446 78.152C149.877 78.5721 150.893 79.695 151.051 80.225L150.807 80.4107C146.135 80.6835 140.537 80.4991 135.741 80.5819L134.409 80.5155C133.763 80.4059 125.968 80.5157 124.866 80.5174L102.622 80.5361C99.1593 80.537 93.1928 80.6979 89.9085 80.2995C89.2881 80.405 88.7868 80.5127 88.1509 80.4861C83.3985 80.5107 77.8713 80.6581 73.1843 80.4184L72.9264 80.2054C73.9837 79.0327 78.6891 75.2492 80.1596 74.0263L81.8574 75.9627Z"/><path fill="#3FBAEB" d="M88.1509 80.4861C89.9957 77.6475 95.1574 75.9117 97.2912 73.6826C101.529 69.2553 104.194 64.77 108.827 60.4641C107.287 63.2755 99.8756 72.8588 97.1555 75.2687C96.2816 76.043 92.2267 78.2259 89.9085 80.2995C89.2881 80.405 88.7868 80.5127 88.1509 80.4861Z"/><path fill="#3FBAEB" d="M134.409 80.5155C132.002 77.9953 131.006 75.5935 129.125 72.7284C127.871 70.8183 126.058 68.947 124.708 67.0629C123.576 65.4847 122.777 63.5966 121.696 62.0509L121.788 61.7923C124.546 64.9197 127.185 68.709 129.939 71.9149C131.145 73.3185 132.179 75.9331 133.359 77.454C134.012 78.4461 135.337 79.7702 135.741 80.5819L134.409 80.5155Z"/><path fill="#7DCBE9" d="M128.801 63.1261L129.251 62.5603C130.992 64.4276 133.166 65.5479 134.58 67.6274C131.902 66.0535 130.894 65.3907 128.801 63.1261Z"/><path fill="#7DCBE9" d="M118.155 56.7874L118.589 55.7153C119.103 57.1561 120.207 58.2866 120.848 59.8752C119.784 58.7702 119.062 58.0361 118.155 56.7874Z"/><path fill="#FEFEFE" d="M104.228 43.3007C104.586 43.2786 104.945 43.2626 105.304 43.2526C108.595 43.1665 109.513 44.9379 109.528 47.916C110.68 48.1827 112.214 48.2919 112.746 49.3866C112.262 49.9032 111.676 49.9334 110.905 50.163C110.315 50.8689 111.323 50.5155 111.382 51.535C109.423 53.8213 103.794 53.0544 101.204 52.5673C97.8327 51.8337 93.16 51.8775 91.2875 51.3988L91.3313 51.11C93.3028 50.0749 97.719 49.6809 100.963 48.1991C101.66 46.3737 103.009 44.8072 104.228 43.3007Z"/><path fill="#FEFEFE" d="M125.216 55.629C126.327 55.572 129.477 55.1006 129.973 56.0798L129.556 56.5303C128.206 56.879 126.099 57.4117 125.077 56.2227L125.216 55.629Z"/><path fill="#FEC35D" d="M204.233 80.6458C205.412 78.1631 207.881 74.0897 209.299 71.6217L219.164 54.5528L250.443 0.262344L282.849 56.5182C285.801 61.7129 288.784 66.8903 291.796 72.0501C293.109 74.3213 295.423 78.9005 297.117 80.6186C288.601 80.4314 277.921 80.8481 269.744 80.2471C268.016 80.2269 266.288 80.1627 264.563 80.0544C263.571 80.404 259.051 80.679 258.324 80.3472C256.407 80.2122 253.821 80.3242 251.85 80.3576C249.644 80.4863 248.207 80.5027 246.001 80.401C244.255 80.4794 242.098 80.6511 240.464 80.0539C237.846 80.2572 234.824 80.5349 232.223 80.5136C225.902 80.3224 219.428 80.5843 213.089 80.4734C210.262 80.4239 207.027 80.3973 204.233 80.6458Z"/><path fill="#FEC14D" d="M238.044 77.5952C235.493 75.3587 233.548 72.6226 233.518 69.0753C233.454 61.6341 238.484 49.5035 243.317 43.9887C246.115 40.7951 249.471 38.9278 253.616 38.5682C256.29 38.3362 261.011 39.76 262.799 41.692C267.741 47.035 273.211 58.3795 273.533 65.5984C273.688 69.0918 271.478 73.2078 269.217 75.6907C268.538 76.4367 264.472 80.1976 264.563 80.0544C263.571 80.404 259.051 80.679 258.324 80.3472C256.407 80.2122 253.821 80.3242 251.85 80.3576C249.644 80.4863 248.207 80.5027 246.001 80.401C244.255 80.4794 242.098 80.6511 240.464 80.0539L240.536 79.9472C240.444 79.4553 238.628 78.1191 238.044 77.5952Z"/><path fill="#FEFEFE" d="M252.387 70.6817C256.13 72.5619 260.14 74.4149 262.002 78.4293C261.171 78.9369 259.141 80.3161 258.324 80.3472C256.407 80.2122 253.821 80.3242 251.85 80.3576L250.67 80.1217C250.55 79.6438 252.168 71.8503 252.387 70.6817Z"/><path fill="#FEFEFE" d="M245.322 43.9891C247.418 45.8388 249.995 47.2859 251.877 49.118C251.913 51.5573 251.451 54.4757 251.529 56.5227L251.347 57.7333C251.385 58.8207 250.367 63.588 250.106 64.9271C247.058 65.4242 242.875 65.8527 239.924 65.7723C235.392 65.6489 236.76 61.5835 237.781 58.9583C238.592 56.8727 238.163 56.5343 240.07 55.1277C240.074 54.3807 240.114 54.5362 240.516 53.8338C239.137 51.138 243.707 46.1914 245.322 43.9891Z"/><path fill="#FEFEFE" d="M245.322 43.9891C247.418 45.8388 249.995 47.2859 251.877 49.118C251.913 51.5573 251.451 54.4757 251.529 56.5227C250.372 56.5959 248.077 56.2593 246.831 56.1164L245.6 55.7265C244.037 55.8725 241.827 54.5986 240.516 53.8338C239.137 51.138 243.707 46.1914 245.322 43.9891Z"/><path fill="#FEC35D" d="M240.516 53.8338C241.827 54.5986 244.037 55.8725 245.6 55.7265L246.831 56.1164C246.467 56.5637 246.264 56.8485 245.783 57.1869L244.396 56.8483C243.41 56.2936 241.157 55.4871 240.07 55.1277C240.074 54.3807 240.114 54.5362 240.516 53.8338Z"/><path fill="#FEC14D" d="M245.6 55.7265L246.831 56.1164C246.467 56.5637 246.264 56.8485 245.783 57.1869L244.396 56.8483C244.843 56.2283 244.943 56.1137 245.6 55.7265Z"/><path fill="#FEC35D" d="M246.831 56.1164C248.077 56.2593 250.372 56.5959 251.529 56.5227L251.347 57.7333C249.622 57.6279 247.425 57.558 245.783 57.1869C246.264 56.8485 246.467 56.5637 246.831 56.1164Z"/><path fill="#FEFEFE" d="M266.272 59.5948C267.371 59.14 268.372 58.7294 269.44 58.1912C273.238 65.839 271.278 71.2361 264.294 75.6257C261.821 74.6162 254.033 70.8995 252.889 68.8916C252.6 67.5147 252.85 66.3242 253.14 64.9851C253.494 63.3555 253.634 62.7164 255.413 62.4006C255.517 62.3823 255.62 62.3653 255.724 62.3498C259.658 62.1665 262.748 61.2442 266.272 59.5948Z"/><path fill="#FEFEFE" d="M236.151 66.9764C239.62 66.7716 247.075 66.0365 250.185 66.4902C250.289 69.0125 249.699 78.2435 248.097 80.0944C247.374 80.4546 246.801 80.34 245.997 80.282C243.652 80.4596 241.098 78.0939 239.319 76.6348C236.346 73.0319 236.561 71.4904 236.151 66.9764Z"/><path fill="#FEFEFE" d="M254.208 60.991C253.458 60.2959 253.716 56.8809 253.902 55.9479C254.789 51.5117 261.458 50.1299 265.139 47.6253C266.123 49.173 267.178 51.1326 268.02 52.8C269.565 55.8612 268.813 57.0625 266.177 58.3761C262.693 59.3158 257.646 60.9902 254.208 60.991Z"/><path fill="#FEFEFE" d="M256.159 40.752C259.459 40.5664 264.428 42.3576 263.378 46.7017C263.018 48.1907 261.166 48.9155 259.86 49.5363C258.412 50.1009 256.144 51.3875 254.701 52.1558C255.209 48.3574 255.695 44.556 256.159 40.752Z"/><path fill="#FEFEFE" d="M251.319 40.7838C251.886 40.808 252.03 40.9275 252.522 41.2249C253.578 42.6564 253.22 45.3792 251.895 46.5999C251.016 46.8436 251.229 46.759 250.258 46.3973C246.4 43.4486 246.857 41.8735 251.319 40.7838Z"/><path fill="#FEFEFE" d="M251.699 37.4089C252.255 36.493 253.06 34.2211 253.635 33.9665C254.045 34.2608 254.451 34.5591 254.855 34.8614C256.134 33.5509 253.753 26.4133 255.608 25.5272C256.987 26.138 257.61 27.9274 258.245 29.2772C258.068 30.8445 256.96 33.8446 257.306 35.0312C258.264 35.5393 258.073 34.5669 259.328 34.8812C259.396 35.9864 258.977 36.6879 259.367 37.3678C259.977 37.4243 262.348 35.7466 263.028 35.3127C262.836 36.7684 262.515 37.9385 263.31 39.1717C264.549 40.2085 267.127 39.6747 268.855 39.5262C268.276 40.1159 266.722 41.521 266.589 42.2091C267.365 42.8201 269.261 41.8525 270.586 42.6553C270.559 43.3583 268.726 45.9023 268.208 46.7118C269.631 46.6668 272.396 46.2195 273.196 47.3391C273.753 48.0981 273.676 47.7978 273.737 48.6202C273.292 49.2439 273.058 49.2789 272.338 49.4638C272.984 49.461 273.846 49.3657 274.347 49.7142C274.349 50.9342 272.609 51.5062 272.368 52.6395C273.504 53.186 274.382 52.2987 275.281 52.8608C275.415 53.5856 275.435 53.304 275.182 54.0079C275.687 54.6241 276.081 54.9439 275.761 55.8457L276.322 56.4276C276.267 57.2514 276.156 57.2377 275.391 57.906C275.158 58.1094 274.922 58.3109 274.685 58.5105L274.702 58.974C275.986 60.0402 277.254 59.8671 278.868 60.2844C277.923 61.0953 276.262 62.4511 275.488 63.3164C276.336 63.5891 277.852 63.9505 278.391 64.5662C277.976 65.8629 275.527 65.845 276.316 67.3402C276.922 68.4874 277.365 68.5683 277.45 69.7145C276.718 70.3549 276.181 69.7111 275.507 70.3759C275.818 71.5721 276.454 71.1351 276.329 72.3032C275.336 72.6808 274.929 72.5396 274.488 73.2375C274.607 74.4946 275.265 75.339 274.993 76.1357L274.615 76.3523C273.72 76.0162 273.304 75.6926 272.46 75.8513C271.903 76.9493 272.66 76.9632 271.852 77.6811C270.754 77.5884 270.621 77.3541 269.975 77.88C269.481 79.0707 270.781 79.6644 269.744 80.2471C268.016 80.2269 266.288 80.1627 264.563 80.0544C264.472 80.1976 268.538 76.4367 269.217 75.6907C271.478 73.2078 273.688 69.0918 273.533 65.5984C273.211 58.3795 267.741 47.035 262.799 41.692C261.011 39.76 256.29 38.3362 253.616 38.5682C249.471 38.9278 246.115 40.7951 243.317 43.9887C238.484 49.5035 233.454 61.6341 233.518 69.0753C233.548 72.6226 235.493 75.3587 238.044 77.5952C238.628 78.1191 240.444 79.4553 240.536 79.9472L240.464 80.0539C237.846 80.2572 234.824 80.5349 232.223 80.5136C232.427 78.7374 234.382 77.1676 233.207 75.8016C232.217 75.3468 230.649 75.4213 229.519 75.3984C230.494 74.4354 231.706 73.493 231.719 72.1436C230.592 71.6284 230.085 72.1681 228.603 71.9576L228.518 71.5701C229.079 70.4395 230.586 69.4029 231.626 68.5421C230.833 68.0138 229.198 67.0281 228.675 66.3342L228.798 66.0273C229.482 65.6944 230.088 65.5147 230.808 65.283C231.42 63.6137 228.631 63.783 228.015 62.1281C229.273 61.1621 231.562 62.6404 232.174 60.88C231.962 59.5648 230.022 59.4065 230.498 58.0336L231.273 57.9093C231.196 56.7612 231.21 56.686 232.082 56.0404L231.787 55.4594C232.361 54.7497 232.692 55.4499 233.958 54.7958L234.016 54.3317C233.578 53.3961 232.194 52.5335 231.319 51.8879C232.647 51.7868 234.546 52.0054 235.111 50.7381C234.923 49.7415 233.462 48.0216 232.778 47.118C234.409 47.1139 236.271 46.9623 237.918 46.8625L236.055 43.4671C237.72 43.5609 239.587 44.0481 240.537 42.5033C240.73 41.4195 240.314 40.1838 240.037 39.1011L243.978 40.2906C243.841 39.5266 243.443 38.0306 243.784 37.428C244.471 37.2462 246.279 38.219 247.245 38.565C249.158 38.2257 248.086 36.0043 249.29 35.1381C250.016 35.356 251.128 36.7738 251.699 37.4089Z"/><path fill="#FEC14D" d="M275.182 54.0079C275.687 54.6241 276.081 54.9439 275.761 55.8457C275.045 56.0593 274.189 56.4263 273.621 55.8552C273.776 55.0798 274.557 54.5492 275.182 54.0079Z"/><path fill="#FEC14D" d="M231.273 57.9093C231.196 56.7612 231.21 56.686 232.082 56.0404C232.573 56.5318 233.126 56.9479 233.163 57.6252C232.555 58.211 232.109 58.0516 231.273 57.9093Z"/><path fill="#FEC14D" d="M273.196 47.3391C273.753 48.0981 273.676 47.7978 273.737 48.6202C273.292 49.2439 273.058 49.2789 272.338 49.4638L271.942 49.3949L271.682 49.0005C271.883 48.3322 272.639 47.8154 273.196 47.3391Z"/><path fill="#1C7E3C" d="M135.754 0L167.24 0L181.072 0L183.085 0L227.183 0C227.145 0.752469 226.988 1.31738 226.621 1.97905C211.985 28.3343 195.927 54.1159 181.432 80.524C166.724 54.3032 151.026 28.543 136.388 2.27275C135.982 1.54315 135.756 0.83657 135.754 0Z"/><path fill="#FEFEFE" d="M167.24 0L181.072 0L183.085 0L184.209 0.76638L184.25 0.79673C184.702 1.13968 184.756 1.21267 184.947 1.74117L185.508 1.87911C186.082 1.50147 186.659 1.13001 187.241 0.764791C191.723 0.76888 196.349 0.711974 200.818 0.789103C201.228 2.12945 201.821 3.48908 201.235 4.7883C199.927 5.48978 199.149 4.17077 198.241 4.87707C198.489 6.21818 201.353 7.21601 198.55 8.67529C196.819 8.28557 197.083 6.0748 195.744 5.27547C193.892 4.96358 193.272 6.1278 191.453 5.24755C191.073 5.06399 190.432 4.81685 190.139 5.14809C188.806 6.65594 188.81 6.4869 186.817 6.85904C186.226 6.17841 185.662 5.39148 184.801 5.14826C183.89 5.32971 183.912 6.1013 182.975 6.29265C181.724 6.54829 182.009 5.48604 180.853 5.61443L179.957 6.61699L179.399 6.62752L178.665 5.84295L178.19 5.92042C177.745 6.74153 177.496 7.12825 176.936 7.87583L176.376 7.98638C173.958 6.34187 174.344 8.73322 171.999 9.16L171.75 8.92791C171.828 8.54911 171.882 8.1328 172.083 7.80957L172.088 7.19278C171.809 7.55857 169.483 10.2689 169.453 10.3429L169.807 11.2652C169.587 11.7458 169.413 11.7955 168.932 12.0359C173.605 14.2783 174.157 18.6864 172.778 23.2957C172.054 25.1031 171.55 25.8504 170.347 27.4178C168.981 28.3767 168.284 28.8639 166.78 29.5941C162.453 27.497 160.109 24.7119 161.426 19.6312C161.922 17.7193 163.716 15.5734 163.846 13.7643C163.607 12.7123 162.157 11.4537 161.334 10.611L162.587 8.35555C162.904 8.03745 163.368 8.06662 163.916 7.77492L163.647 7.66582C162.366 5.86124 167.529 2.5963 167.624 0.723539L167.24 0Z"/><path fill="#15842B" d="M167.24 0L181.072 0C179.648 1.11579 174.596 0.82239 172.62 0.814419C171.565 0.727776 170.12 0.495984 169.179 0.884261C168.757 1.31106 168.728 1.37663 168.645 1.97201C167.291 5.12648 165.68 5.27489 163.916 7.77492L163.647 7.66582C162.366 5.86124 167.529 2.5963 167.624 0.723539L167.24 0Z"/><path fill="#2D9243" d="M181.072 0L183.085 0L184.209 0.76638C182.622 0.913052 183.199 1.99153 182.152 1.60138C180.712 -0.141189 179.961 1.22638 178.751 2.25798C177.69 3.16247 175.349 2.3213 174.609 2.41888L174.36 2.15366C175.019 1.78429 174.841 1.98168 175.212 1.36121C174.731 0.938973 173.329 0.891329 172.62 0.814419C174.596 0.82239 179.648 1.11579 181.072 0Z"/><path fill="#FEFEFE" d="M168.645 1.97201C168.728 1.37663 168.757 1.31106 169.179 0.884261C170.12 0.495984 171.565 0.727776 172.62 0.814419C173.329 0.891329 174.731 0.938973 175.212 1.36121C174.841 1.98168 175.019 1.78429 174.36 2.15366C171.411 0.785231 171.971 2.48013 169.562 3.27399C169.645 2.95633 169.597 2.84474 169.533 2.52782L168.645 1.97201Z"/><path fill="#2D9243" d="M172.088 7.19278C171.73 4.45154 173.956 3.77053 176.063 4.91155L176.364 5.37112C175.566 6.2309 174.378 5.54601 172.083 7.80957L172.088 7.19278Z"/><path fill="#15842B" d="M169.562 3.27399C171.971 2.48013 171.411 0.785231 174.36 2.15366L174.609 2.41888C173.661 3.20963 171.349 4.0129 170.11 4.16831L169.644 3.96426L169.562 3.27399Z"/><path fill="#15842B" d="M169.453 10.3429L169.807 11.2652C169.587 11.7458 169.413 11.7955 168.932 12.0359C166.834 11.8199 166.206 13.1186 165.194 12.8198L164.944 12.3286C165.648 11.018 167.593 11.3517 169.453 10.3429Z"/><path fill="#1C7E3C" d="M167.333 6.17305C167.527 6.17269 167.908 6.24956 168.117 6.28408L168.151 6.63537C167.48 7.52937 165.379 9.04887 164.394 9.81027L163.862 9.63212L163.893 9.16663C164.631 8.15718 166.301 6.97584 167.333 6.17305Z"/><path fill="#15842B" d="M170.087 6.63845L170.454 7.03411L170.389 7.72584C169.858 8.62265 169.488 8.84792 168.651 9.47863C167.885 8.11297 168.978 7.35 170.087 6.63845Z"/><path fill="#1C7E3C" d="M167.878 13.1471C168.369 13.1849 168.849 13.3181 169.289 13.5393C169.982 13.8929 170.308 14.3954 170.543 15.1076C169.165 15.1584 168.522 14.1728 167.878 13.1471Z"/><path fill="#FEFEFE" d="M180.483 8.07838L184.19 8.108C182.798 9.70142 181.192 12.3268 180.241 14.2346L180.412 14.6194C182.911 14.6443 185.979 15.9299 187.689 15.5784C189.014 14.7289 190.129 12.176 189.368 10.6407C188.055 9.89347 186.111 9.66338 184.545 9.33983C187.95 8.80918 193.792 7.78046 195.834 11.2623L195.682 11.5888C193.019 12.385 190.649 12.4472 191.648 16.4403C192.074 18.1464 193.46 16.5241 195.149 17.3004C196.472 18.9301 196.055 21.8028 194.978 23.4851C194.984 24.08 194.359 24.8175 193.827 25.0504L193.729 25.02L193.018 25.1545C192.35 25.9427 192.302 25.929 191.114 26.1149C191.976 26.5779 192.544 26.6003 192.984 27.2176C193.523 27.1687 193.629 27.2522 194.105 27.5297C193.76 28.7848 193.29 30.2803 193.582 31.5734L192.749 31.656L192.57 32.2879C190.543 34.3415 175.421 29.0624 173.48 29.4861L172.27 28.6426L172.626 27.1767C173.133 26.5012 174.023 24.8589 174.481 24.0666C175.204 23.2452 175.795 23.7835 176.904 23.0823C176.965 22.6965 177.065 22.5833 176.873 22.2444C175.317 19.4932 175.255 17.5213 175.238 14.457C176.393 12.376 178.672 9.61967 180.483 8.07838Z"/><path fill="#15842B" d="M191.114 26.1149C189.054 24.5457 186.279 26.3967 183.602 25.379L183.595 25.0796C183.82 24.8923 184.072 24.7402 184.343 24.6285C187.376 23.4041 190.16 23.9681 193.018 25.1545C192.35 25.9427 192.302 25.929 191.114 26.1149Z"/><path fill="#15842B" d="M193.729 25.02C193.573 21.1655 187.76 23.6801 187.628 20.64C188.856 20.0481 192.167 21.6123 193.521 21.9376C193.353 21.8971 194.826 23.3541 194.978 23.4851C194.984 24.08 194.359 24.8175 193.827 25.0504L193.729 25.02Z"/><path fill="#2D9243" d="M192.984 27.2176C193.523 27.1687 193.629 27.2522 194.105 27.5297C193.76 28.7848 193.29 30.2803 193.582 31.5734L192.749 31.656C192.129 30.4668 192.562 28.4115 192.984 27.2176Z"/><path fill="#1C7E3C" d="M186.132 19.6781C186.529 19.7981 186.405 19.6963 186.6 20.0562C186.074 21.1418 184.399 22.38 183.397 23.1103L182.974 22.8579L182.914 22.4383C183.609 21.4362 185.118 20.4341 186.132 19.6781Z"/><path fill="#2D9243" d="M188.461 27.4465C189.796 27.3878 190.458 27.7143 190.8 28.9976C190.309 28.9618 189.729 28.8289 189.238 28.7318C188.526 28.1466 188.737 28.4044 188.461 27.4465Z"/><path fill="#FEFEFE" d="M171.198 32.1238C170.915 31.3052 170.494 30.3379 170.589 29.5018L171.008 29.3033C171.702 30.1982 171.992 30.6516 172.96 31.2249C174.695 32.1117 176.893 34.9013 178.444 36.2265C180.163 37.6946 179.569 36.0015 181.368 36.2602C182.008 37.0038 181.909 36.6845 181.912 37.5424C180.916 38.9843 180.155 39.3293 181.085 40.9898C182.204 41.6418 182.725 41.222 183.89 40.7397L184.109 40.9732C184.052 42.3882 183.787 47.2946 182.766 48.1174L182.41 48.0016C181.699 46.5022 180.115 41.0791 177.947 42.0153C177.565 42.8564 177.559 43.4683 177.479 44.385L177.206 44.4382C176.595 43.7428 176.067 42.9743 175.966 42.0148C175.891 41.8179 173.65 39.7537 173.188 39.2132C173.069 39.1203 172.953 39.0243 172.84 38.9252C171.803 38.0114 171.954 36.9442 171.875 35.5337C171.612 34.6196 171.379 33.0999 171.198 32.1238Z"/><path fill="#2D9243" d="M173.745 37.9644C174.497 37.874 174.852 37.6902 175.459 38.2706C176.297 39.0726 176.718 40.4622 176.059 41.4617L175.966 42.0148C175.891 41.8179 173.65 39.7537 173.188 39.2132C173.706 38.647 173.564 38.7692 173.745 37.9644Z"/><path fill="#D0E7D1" d="M173.188 39.2132C173.706 38.647 173.564 38.7692 173.745 37.9644C174.427 39.2151 175.3 40.2586 176.059 41.4617L175.966 42.0148C175.891 41.8179 173.65 39.7537 173.188 39.2132Z"/><path fill="#FEFEFE" d="M194.105 27.5297C195.094 25.5874 196.239 23.9551 196.99 21.9437C197.686 20.0836 196.58 18.8745 197.319 17.8013C201.947 19.6645 197.012 30.2062 193.582 31.5734C193.29 30.2803 193.76 28.7848 194.105 27.5297Z"/><path fill="#FEFEFE" d="M167.624 0.723539C167.529 2.5963 162.366 5.86124 163.647 7.66582L163.916 7.77492C163.368 8.06662 162.904 8.03745 162.587 8.35555C160.248 5.51987 165.182 1.00416 167.624 0.723539Z"/><path fill="#15842B" d="M172.778 23.2957C173.565 23.3901 173.936 23.338 174.481 24.0666C174.023 24.8589 173.133 26.5012 172.626 27.1767C172.474 26.7376 172.377 26.3909 172.262 25.9405C171.367 26.3198 171.699 27.2092 170.581 27.5438L170.347 27.4178C171.55 25.8504 172.054 25.1031 172.778 23.2957Z"/><path fill="#15842B" d="M171.008 29.3033C171.321 29.0595 171.89 28.8199 172.27 28.6426L173.48 29.4861C173.413 29.9573 173.416 30.0574 173.116 30.4247L173.387 30.7795C173.209 31.1532 173.322 31.0365 172.96 31.2249C171.992 30.6516 171.702 30.1982 171.008 29.3033Z"/><path fill="#FEFEFE" d="M182.364 60.3249C182.416 60.8991 182.404 60.9662 182.087 61.4474L181.655 61.3605C179.946 59.7334 175.104 50.1182 176.54 47.8809L177.418 47.7543C178.979 48.3998 181.209 47.8587 181.585 49.9222C181.207 50.6616 181.003 50.9093 180.491 51.5464L181.285 53.1173C182.267 53.1445 183.126 52.9823 183.785 53.5133C183.444 54.3494 182.831 53.9797 182.703 54.7754C183.342 55.0928 183.83 54.8089 183.882 55.0508C184.123 56.1804 183.878 58.5762 183.707 59.7009C183.134 60.1769 182.69 60.0745 182.364 60.3249Z"/><path fill="#15842B" d="M181.285 53.1173C182.267 53.1445 183.126 52.9823 183.785 53.5133C183.444 54.3494 182.831 53.9797 182.703 54.7754C183.342 55.0928 183.83 54.8089 183.882 55.0508C184.123 56.1804 183.878 58.5762 183.707 59.7009C183.134 60.1769 182.69 60.0745 182.364 60.3249C181.453 59.1437 181.142 54.6425 181.285 53.1173Z"/><path fill="#2D9243" d="M177.418 47.7543C178.979 48.3998 181.209 47.8587 181.585 49.9222C181.207 50.6616 181.003 50.9093 180.491 51.5464C179.495 50.0948 178.582 49.0768 177.418 47.7543Z"/><path fill="#FEFEFE" d="M186.419 39.4877C185.852 38.7505 185.671 38.7851 185.717 38.005C186.64 37.8139 192.361 41.4717 193.797 42.2932C193.201 43.2112 192.175 44.8902 191.547 45.7122C191.317 45.8849 191.086 46.0165 190.965 46.2672L190.671 46.9442L190.13 47.1221C189.136 46.9006 188.619 46.4073 188.378 45.4032L188.714 44.9461L189.279 44.245C188.747 42.569 188.603 42.3005 187.63 40.8952C187.046 41.1281 186.95 41.3592 186.604 41.8994C186.033 41.8459 185.618 41.1793 185.122 40.6514C185.433 39.834 185.723 40.6248 186.419 39.4877Z"/><path fill="#2D9243" d="M186.419 39.4877C186.816 39.9548 187.218 40.4432 187.63 40.8952C187.046 41.1281 186.95 41.3592 186.604 41.8994C186.033 41.8459 185.618 41.1793 185.122 40.6514C185.433 39.834 185.723 40.6248 186.419 39.4877Z"/><path fill="#D0E7D1" d="M188.714 44.9461L190.965 46.2672L190.671 46.9442L190.13 47.1221C189.136 46.9006 188.619 46.4073 188.378 45.4032L188.714 44.9461Z"/><path fill="#1A7552" d="M189.279 44.245L191.547 45.7122C191.317 45.8849 191.086 46.0165 190.965 46.2672L188.714 44.9461L189.279 44.245Z"/><path fill="#FEFEFE" d="M185.748 43.1983C186.243 44.1658 186.773 45.4586 187.223 46.4735C189.713 47.7791 190.027 48.7179 188.38 51.0769L187.522 51.1264L185.636 51.1454C186.614 48.1228 186.652 49.0641 185.607 45.9775C185.508 45.6876 185.703 43.6711 185.748 43.1983Z"/><path fill="#FEFEFE" d="M170.676 42.3558C173.873 42.5581 174.202 45.6124 174.823 48.1392C172.928 47.9304 171.202 44.0187 170.676 42.3558Z"/><path fill="#FEFEFE" d="M170.786 35.6981C169.904 36.2071 168.834 37.0608 167.879 36.5633C167.918 35.9143 169.638 33.2794 170.27 32.989C170.768 34.105 170.757 34.4659 170.786 35.6981Z"/><path fill="#FEFEFE" d="M174.169 9.57083C174.628 9.68271 174.67 9.75661 174.964 10.1289C175.064 10.9477 174.526 11.539 174.051 12.2404C173.214 11.781 173.415 12.0315 172.996 11.2437C173.124 10.4402 173.58 10.121 174.169 9.57083Z"/><path fill="#D0E7D1" d="M184.986 12.1364L185.524 12.5093L185.548 13.0038C185.102 13.6548 184.586 13.8353 183.881 14.1839C183.583 13.9803 183.524 13.809 183.362 13.4969C183.747 12.7455 184.182 12.6543 184.986 12.1364Z"/><path fill="#73B589" d="M187.522 51.1264L188.38 51.0769C187.936 52.1779 187.917 52.8016 187.007 53.4531L186.732 53.3205C186.725 52.4409 187.103 51.896 187.522 51.1264Z"/><path fill="#1A7552" d="M321.38 99.9794C325.714 100.089 335.581 99.0411 338.027 102.048C341.742 106.615 338.722 110.674 334.296 112.393C336.891 114.302 339.952 119.066 341.316 122L336.416 122C332.566 117.868 332.431 113.046 326.161 112.409C326.209 114.712 326.403 120.007 325.924 122L321.806 122C321.405 119.872 321.562 116.916 321.529 114.704C321.457 109.875 321.746 104.783 321.38 99.9794ZM326.222 109.49C328.692 109.09 331.865 109.457 333.761 108.625C335.681 106.987 335.929 105.227 333.326 104.211C330.874 103.254 328.578 103.945 326.17 103.53C326.064 105.47 326.292 107.519 326.222 109.49Z"/><path fill="#1A7552" d="M284.569 99.9762C289.894 100.053 295.711 100.161 301.029 99.9914L301.058 103.778C298.602 103.756 291.364 103.831 289.152 103.46C289.378 105.607 289.393 106.409 289.196 108.558C293.04 108.391 296.615 108.385 300.45 108.341C300.351 109.785 300.289 110.886 300.318 112.338C297.31 112.286 292.084 112.364 289.206 112.105C289.33 114.126 289.509 116.257 289.395 118.27C292.155 117.884 298.38 118.03 301.506 117.989C301.437 119.113 301.378 120.95 301.156 122L284.833 122C284.48 119.484 284.598 114.021 284.645 111.135C284.703 107.555 284.481 103.432 284.569 99.9762Z"/><path fill="#1A7552" d="M259.362 108.529C259.288 107.364 259.246 105.575 259.097 104.479C258.459 99.7923 259.752 99.841 263.841 99.9366C263.644 104.802 263.811 109.673 263.786 114.533C263.779 115.96 263.872 120.78 263.567 122L259.436 122C258.96 120.319 259.227 114.227 259.289 112.233C257.294 112.434 252.537 112.339 250.542 112.194C250.846 114.237 250.976 119.999 250.57 122L246.302 122C245.922 115.303 246.147 106.796 246.091 99.9049C247.723 99.9444 249.275 99.9879 250.908 99.9349C250.762 102.62 250.906 106.314 250.645 108.747C252.959 108.44 256.922 108.499 259.362 108.529Z"/><path fill="#1A7552" d="M96.7934 100.028C100.735 100.053 109.577 100.302 113.17 99.9635C113.192 101.114 113.245 102.424 113.235 103.562C109.625 103.798 104.692 103.449 101.451 103.807C101.205 105.432 101.557 106.539 101.239 108.559C104.425 108.416 109.729 108.569 112.453 108.273C112.371 109.751 112.3 110.847 112.401 112.331C109.859 112.285 103.459 112.352 101.236 112.044C101.48 114.128 101.553 116.228 101.452 118.324C105.681 117.861 109.515 118.318 113.643 117.77C113.597 118.685 113.515 121.235 113.337 122L97.0625 122C96.6624 119.887 96.7846 116.129 96.7874 113.87C96.813 109.256 96.815 104.642 96.7934 100.028Z"/><path fill="#1A7552" d="M360.072 99.9131C363.075 100.073 373.826 100.259 376.524 99.8463L376.503 103.684C372.58 103.586 368.337 103.832 364.514 103.576C364.778 105.419 364.872 106.612 364.584 108.508C368.33 108.432 372.075 108.379 375.821 108.347C375.788 109.729 375.752 110.998 375.819 112.384C372.462 112.245 367.595 112.364 364.544 112.065C364.734 114.103 364.848 116.18 364.637 118.224C368.847 117.856 372.342 118.288 376.584 117.729L376.504 122L360.506 122C360.112 120.32 360.196 117.861 360.196 116.09C360.193 110.672 360.32 105.329 360.072 99.9131Z"/><path fill="#1A7552" d="M193.182 118.473C194.412 117.705 195.424 117.24 195.881 115.836C195.636 113.201 192.78 113.009 190.722 112.262C189.965 111.987 189.178 111.81 188.39 111.514C184.121 109.912 181.83 105.974 185.156 102.061C189.138 97.3753 198.632 99.4259 200.285 105.416C200.333 105.584 200.161 106.049 200.076 106.235C199.215 106.936 197.272 106.773 195.895 106.885C191.429 99.0121 182.202 106.601 193.659 108.594C201.876 110.024 203.554 117.575 195.448 122L188.334 122C185.195 120.191 183.901 119.086 182.904 115.388C182.821 115.081 182.742 114.773 182.665 114.465L186.859 114.05C188.726 117.854 188.908 118.281 193.182 118.473Z"/><path fill="#1A7552" d="M61.5523 99.9836C66.1004 100.034 72.3455 100.254 76.7693 99.9358L76.7508 103.667C74.0454 103.67 68.4201 103.843 65.998 103.536C66.208 105.598 66.2156 106.708 66.1452 108.786C68.905 108.771 72.6563 108.851 75.3325 108.672C75.3171 109.925 75.2681 111.326 75.3312 112.566C72.6033 112.548 68.6423 112.646 66.0156 112.476C66.0858 114.032 66.2376 120.746 66.01 122L61.8418 122C61.475 118.917 61.5557 113.676 61.5868 110.421C61.6176 107.205 61.4446 103.105 61.5523 99.9836Z"/><path fill="#1A7552" d="M1.27151 99.9093L6.01176 100.013C5.79292 105.569 5.7548 112.387 5.73685 118.051C9.477 118.016 13.2173 118 16.9576 118.003C16.9617 119.435 17.0591 120.636 16.5379 122L1.46582 122C1.18819 119.878 1.21402 117.356 1.23752 115.194C1.29272 110.118 1.14214 104.979 1.27151 99.9093Z"/><path fill="#1A7552" d="M158.768 100.002C160.303 99.9737 161.987 99.9731 163.507 99.8802C163.392 104.69 163.486 109.448 163.491 114.25C163.493 115.889 163.59 120.554 163.265 122L158.99 122C158.689 120.385 158.744 118.742 158.734 117.107C158.697 111.406 158.886 105.703 158.768 100.002Z"/><path fill="#1A7552" d="M36.3178 99.9633L40.9132 100.022C40.9585 103.262 41.3638 119.764 40.7512 122L36.4389 122C35.7952 115.41 36.7603 107.147 36.3178 99.9633Z"/></svg>